#!OML:ASF H:\Not Pregnant\Project 1\Capture day 1\Session 1\non-pregnant.ASF
:FULLY-SPECIFIED
:DEGREES
402
root 4.86869 20.7601 10.3821 18.7 21.7503 -6.16575
lowerback -3.26769 0.645877 -0.720022
upperback -9.03366 0.872705 -1.07863
thorax -7.5997 0.47564 -0.763282
lowerneck 21.2533 -12.149 -29.8365
upperneck -6.25952 -23.2248 44.1238
head 4.97402 -14.4108 22.1206
rclavicle 9.66093e-014 3.18055e-015
rhumerus -41.7658 -22.2857 -74.798
rradius 20.5318
rwrist 36.491
rhand -11.4335 -1.93601
rfingers 7.12502
rthumb 14.6029 -31.4019
lclavicle 9.66093e-014 3.18055e-015
lhumerus -40.5883 -7.05248 76.5315
lradius 35.8906
lwrist 39.9068
lhand -21.404 -13.272
lfingers 7.12502
lthumb 4.98431 16.6494
rfemur -36.5149 -12.3977 35.0621
rtibia 31.6659
rfoot -14.6311 -3.70282
rtoes -12.5091
lfemur -29.6875 17.8029 -23.655
ltibia 31.5735
lfoot -20.2044 19.3784
ltoes -11.226
403
root 4.87303 20.7543 10.4067 18.7852 21.1484 -6.11314
lowerback -3.39677 0.557486 -0.618455
upperback -9.03916 0.754332 -1.07908
thorax -7.53043 0.408636 -0.814485
lowerneck 21.0964 -12.1004 -29.8916
upperneck -5.93219 -23.2143 43.9294
head 5.04934 -14.3672 21.9926
rclavicle -2.15433e-014 -1.59028e-014
rhumerus -42.0512 -22.351 -74.5249
rradius 20.3583
rwrist 36.9263
rhand -11.0821 -1.94968
rfingers 7.12502
rthumb 14.9414 -31.3908
lclavicle -2.15433e-014 -1.59028e-014
lhumerus -40.4157 -7.15429 76.7233
lradius 36.2024
lwrist 39.9475
lhand -21.0733 -13.3272
lfingers 7.12502
lthumb 5.30354 16.5865
rfemur -36.3069 -12.2689 35.0147
rtibia 31.3988
rfoot -14.6347 -3.37469
rtoes -12.2043
lfemur -29.5968 18.0661 -23.7741
ltibia 31.5769
lfoot -20.2857 19.7006
ltoes -11.2769
404
root 4.87812 20.7493 10.4329 18.8597 20.5637 -6.05167
lowerback -3.53014 0.472009 -0.514756
upperback -9.04013 0.639761 -1.07917
thorax -7.45424 0.343419 -0.866968
lowerneck 20.9435 -12.0522 -29.949
upperneck -5.60528 -23.2028 43.7245
head 5.12145 -14.3225 21.8595
rclavicle -1.98288e-014 2.8625e-014
rhumerus -42.325 -22.3627 -74.2766
rradius 20.218
rwrist 37.2999
rhand -10.7294 -1.96122
rfingers 7.12502
rthumb 15.2812 -31.3767
lclavicle -1.98288e-014 2.8625e-014
lhumerus -40.2324 -7.23627 76.9186
lradius 36.5087
lwrist 39.9669
lhand -20.7695 -13.3763
lfingers 7.12502
lthumb 5.59689 16.5298
rfemur -36.1234 -12.2283 34.979
rtibia 31.1876
rfoot -14.6567 -2.92819
rtoes -11.7794
lfemur -29.4737 18.3346 -23.8989
ltibia 31.555
lfoot -20.3475 20.0103
ltoes -11.4
405
root 4.8832 20.7449 10.46 18.9253 19.9884 -5.97143
lowerback -3.64936 0.388606 -0.429178
upperback -9.0362 0.527472 -1.07749
thorax -7.38157 0.280664 -0.908109
lowerneck 20.7851 -12.0073 -30.0091
upperneck -5.28166 -23.1919 43.5093
head 5.19219 -14.2767 21.7191
rclavicle 7.12892e-014 2.38542e-014
rhumerus -42.5685 -22.3141 -74.0587
rradius 20.0998
rwrist 37.5979
rhand -10.3821 -1.96318
rfingers 7.12502
rthumb 15.6157 -31.3529
lclavicle 7.12892e-014 2.38542e-014
lhumerus -40.0251 -7.26775 77.1096
lradius 36.7913
lwrist 39.9396
lhand -20.4926 -13.4147
lfingers 7.12502
lthumb 5.86427 16.4841
rfemur -35.9733 -12.2484 34.9382
rtibia 31.0433
rfoot -14.6723 -2.37999
rtoes -11.2064
lfemur -29.3152 18.5926 -24.0355
ltibia 31.4999
lfoot -20.3787 20.3255
ltoes -11.5836
406
root 4.88909 20.7415 10.4886 18.9753 19.4317 -5.88231
lowerback -3.76722 0.306798 -0.343737
upperback -9.02219 0.417249 -1.07378
thorax -7.2991 0.219043 -0.947421
lowerneck 20.6182 -11.965 -30.0675
upperneck -4.96677 -23.1772 43.2872
head 5.25881 -14.2276 21.5739
rclavicle 1.26974e-014 3.33958e-014
rhumerus -42.7896 -22.2181 -73.8702
rradius 20.0104
rwrist 37.829
rhand -10.0451 -1.96078
rfingers 7.12502
rthumb 15.9402 -31.3248
lclavicle 1.26974e-014 3.33958e-014
lhumerus -39.7844 -7.23685 77.2902
lradius 37.0324
lwrist 39.8345
lhand -20.2285 -13.4571
lfingers 7.12502
lthumb 6.11917 16.4345
rfemur -35.847 -12.3379 34.897
rtibia 30.9649
rfoot -14.6904 -1.74131
rtoes -10.5531
lfemur -29.1127 18.8332 -24.1708
ltibia 31.4148
lfoot -20.3972 20.6405
ltoes -11.7895
